<svg width="133" height="29" viewBox="0 0 133 29" fill="none" xmlns="http://www.w3.org/2000/svg">
<path d="M21.588 1.9V28H17.808V16.696H4.452V28H0.708V1.9H4.452V13.096H17.808V1.9H21.588ZM35.1656 28.36C33.4376 28.36 31.9496 28.024 30.7016 27.352C29.4536 26.656 28.4936 25.708 27.8216 24.508C27.1496 23.284 26.8136 21.904 26.8136 20.368C26.8136 18.88 27.1856 17.536 27.9296 16.336C28.6976 15.112 29.7176 14.14 30.9896 13.42C32.2616 12.7 33.6776 12.34 35.2376 12.34C37.2536 12.34 38.9216 12.928 40.2416 14.104C41.5856 15.256 42.4856 16.888 42.9416 19L30.6656 23.248L29.8016 21.16L39.6656 17.56L38.9096 18.064C38.6216 17.296 38.1656 16.636 37.5416 16.084C36.9176 15.508 36.0656 15.22 34.9856 15.22C33.6416 15.22 32.5376 15.688 31.6736 16.624C30.8336 17.536 30.4136 18.712 30.4136 20.152C30.4136 21.688 30.8696 22.924 31.7816 23.86C32.6936 24.796 33.8456 25.264 35.2376 25.264C35.8856 25.264 36.5096 25.156 37.1096 24.94C37.7096 24.7 38.2736 24.388 38.8016 24.004L40.4576 26.704C39.6896 27.208 38.8376 27.616 37.9016 27.928C36.9896 28.216 36.0776 28.36 35.1656 28.36ZM47.0237 0.0279996H50.6597V28H47.0237V0.0279996ZM56.3401 0.0279996H59.9761V28H56.3401V0.0279996ZM64.3605 20.332C64.3605 18.82 64.7205 17.464 65.4405 16.264C66.1605 15.04 67.1565 14.08 68.4285 13.384C69.7005 12.688 71.1525 12.34 72.7845 12.34C74.4405 12.34 75.8805 12.688 77.1045 13.384C78.3525 14.08 79.3125 15.04 79.9845 16.264C80.6805 17.464 81.0285 18.82 81.0285 20.332C81.0285 21.844 80.6805 23.212 79.9845 24.436C79.2885 25.636 78.3165 26.596 77.0685 27.316C75.8445 28.012 74.3925 28.36 72.7125 28.36C71.1285 28.36 69.7005 28.036 68.4285 27.388C67.1805 26.74 66.1845 25.816 65.4405 24.616C64.7205 23.392 64.3605 21.964 64.3605 20.332ZM68.0325 20.368C68.0325 21.304 68.2365 22.156 68.6445 22.924C69.0525 23.668 69.6045 24.268 70.3005 24.724C71.0205 25.156 71.8125 25.372 72.6765 25.372C74.0445 25.372 75.1605 24.892 76.0245 23.932C76.9125 22.972 77.3565 21.784 77.3565 20.368C77.3565 18.952 76.9125 17.764 76.0245 16.804C75.1605 15.82 74.0445 15.328 72.6765 15.328C71.7885 15.328 70.9965 15.556 70.3005 16.012C69.6045 16.468 69.0525 17.08 68.6445 17.848C68.2365 18.616 68.0325 19.456 68.0325 20.368ZM90.9541 1.9H94.6981V28H90.9541V1.9ZM101.415 7.732L99.5426 6.832C100.071 6.352 100.479 5.692 100.767 4.852C101.079 3.988 101.151 3.136 100.983 2.296L103.863 2.044C104.007 2.716 103.971 3.424 103.755 4.168C103.563 4.912 103.251 5.608 102.819 6.256C102.411 6.88 101.943 7.372 101.415 7.732ZM111.225 12.952L111.549 16.228L111.369 15.94C111.921 14.812 112.701 13.936 113.709 13.312C114.741 12.664 115.917 12.34 117.237 12.34C118.485 12.34 119.529 12.628 120.369 13.204C121.209 13.78 121.725 14.596 121.917 15.652L121.737 15.796C122.337 14.716 123.141 13.876 124.149 13.276C125.157 12.652 126.213 12.34 127.317 12.34C128.805 12.34 129.981 12.76 130.845 13.6C131.709 14.416 132.153 15.496 132.177 16.84V28H128.577V18.208C128.553 17.44 128.373 16.804 128.037 16.3C127.725 15.796 127.149 15.52 126.309 15.472C125.445 15.472 124.677 15.736 124.005 16.264C123.357 16.792 122.841 17.476 122.457 18.316C122.097 19.156 121.905 20.056 121.881 21.016V28H118.245V18.208C118.221 17.44 118.029 16.804 117.669 16.3C117.333 15.796 116.745 15.52 115.905 15.472C115.065 15.472 114.309 15.736 113.637 16.264C112.989 16.792 112.485 17.488 112.125 18.352C111.765 19.192 111.585 20.092 111.585 21.052V28H107.949V12.952H111.225Z" fill="white"/>
</svg>
